<?xml version="1.0" standalone="no"?>
<!DOCTYPE svg PUBLIC "-//W3C//DTD SVG 20010904//EN"
 "http://www.w3.org/TR/2001/REC-SVG-20010904/DTD/svg10.dtd">
<svg version="1.0" xmlns="http://www.w3.org/2000/svg"
 width="377.000000pt" height="377.000000pt" viewBox="0 0 377.000000 377.000000"
 preserveAspectRatio="xMidYMid meet">
<metadata>
Generated by Ardenov in 2024
</metadata>
<g transform="translate(0.000000,377.000000) scale(0.100000,-0.100000)"
fill="#000000" stroke="none">
<path d="M915 2853 c-11 -2 -30 -6 -42 -8 -45 -10 -82 -54 -102 -123 -11 -37
-117 -396 -235 -798 -119 -402 -216 -735 -216 -740 0 -8 450 -7 458 1 2 2 22
75 43 162 22 87 44 175 50 196 l10 37 259 0 259 0 10 -37 c5 -21 24 -94 41
-163 17 -69 36 -142 41 -162 l10 -38 230 0 c215 0 230 1 225 18 -17 57 -289
988 -366 1252 -51 173 -101 327 -112 343 -36 50 -55 54 -308 59 -129 3 -244 4
-255 1z m286 -468 c15 -71 45 -203 68 -292 23 -89 41 -169 41 -178 0 -13 -23
-15 -170 -15 -137 0 -170 3 -170 14 0 7 24 114 54 237 30 123 60 251 66 284
16 87 16 87 52 83 l32 -3 27 -130z"/>
<path d="M2346 2528 c-3 -7 -75 -368 -162 -803 -86 -434 -159 -800 -162 -813
-4 -19 0 -22 27 -22 24 0 32 5 36 23 3 12 75 373 161 802 85 429 157 790 161
803 4 19 1 22 -26 22 -17 0 -33 -6 -35 -12z"/>
<path d="M2650 1884 l0 -655 33 3 32 3 0 113 c0 61 0 112 1 112 1 0 18 -25 38
-55 40 -61 93 -104 176 -144 50 -24 66 -26 175 -26 114 0 123 2 188 32 312
148 355 595 77 804 -86 64 -224 97 -334 79 -117 -19 -225 -86 -285 -177 l-31
-46 0 306 0 307 -35 0 -35 0 0 -656z m623 173 c114 -56 189 -162 210 -297 28
-184 -58 -362 -212 -437 -71 -35 -200 -44 -283 -19 -108 31 -201 117 -242 223
-10 27 -20 87 -23 139 -11 192 70 331 234 400 51 22 71 24 158 22 86 -3 108
-7 158 -31z"/>
</g>
</svg>
